<svg xmlns="http://www.w3.org/2000/svg" viewBox="-2 -2 29 29" width="232" height="232" xmlns:c2pa="http://c2pa.org/manifest"><metadata><c2pa:manifest>AAAWgmp1bWIAAAAeanVtZGMycGEAEQAQgAAAqgA4m3EDYzJwYQAAABZcanVtYgAAAEdqdW1kYzJtYQARABCAAACqADibcQN1cm46YzJwYTo5MGViM2YwZC1iODM2LTQzNjAtYTFjMi03NmNlOWI4N2I1MjcAAAADl2p1bWIAAAApanVtZGMyYXMAEQAQgAAAqgA4m3EDYzJwYS5hc3NlcnRpb25zAAAAALxqdW1iAAAARGp1bWRjYm9yABEAEIAAAKoAOJtxE2MycGEuaW5ncmVkaWVudC52MwAAAAAYYzJzaEDHo4kkEd9sMh0TR5BNLKgAAABwY2JvcqNpZGM6Zm9ybWF0bWltYWdlL3N2Zyt4bWxqaW5zdGFuY2VJRHgseG1wOmlpZDo4NDkxN2ZlYy1jYjliLTQwMTEtYjIxNi05NDgzNGIzNWNjYzdscmVsYXRpb25zaGlwaHBhcmVudE9mAAAB4mp1bWIAAABBanVtZGNib3IAEQAQgAAAqgA4m3ETYzJwYS5hY3Rpb25zLnYyAAAAABhjMnNoSFxrVrOr2lrt6pLvNWZzfQAAAZljYm9yomdhY3Rpb25zgqJmYWN0aW9ua2MycGEub3BlbmVkanBhcmFtZXRlcnOha2luZ3JlZGllbnRzgaJjdXJseC1zZWxmI2p1bWJmPWMycGEuYXNzZXJ0aW9ucy9jMnBhLmluZ3JlZGllbnQudjNkaGFzaFggJnD3uSOJQJZZL8x7EjKFKFgXFMCNAkylbC6nV8OG34ukZmFjdGlvbngdY29tLmFudGhyb3BpYy5jbGF1ZGUucHJvdmlkZWRqcGFyYW1ldGVyc6F4H2NvbS5hbnRocm9waWMub3JpZ2luLWNvbmZpZGVuY2VndW5rbm93bmtkZXNjcmlwdGlvbnhmQ2xhdWRlIHByb3ZpZGVkIHRoaXMgZmlsZSBhdCB0aGUgcmVxdWVzdCBvZiBhIHVzZXIgYW5kIG1heSBoYXZlIGNyZWF0ZWQgb3IgbW9kaWZpZWQgdGhlIGZpbGUgY29udGVudHMubXNvZnR3YXJlQWdlbnShZG5hbWVmQ2xhdWRlcmFsbEFjdGlvbnNJbmNsdWRlZPUAAADIanVtYgAAAEBqdW1kY2JvcgARABCAAACqADibcRNjMnBhLmhhc2guZGF0YQAAAAAYYzJzaAjtBQczWGBYrevWHKbQaP0AAACAY2JvcqVjYWxnZnNoYTI1NmNwYWRNAAAAAAAAAAAAAAAAAGRoYXNoWCDauuMg6JQEw3+h0czqKaGmntW5q52Vcvw7lK8nhWGqamRuYW1lbmp1bWJmIG1hbmlmZXN0amV4Y2x1c2lvbnOBomVzdGFydBiWZmxlbmd0aBkeBAAAAj5qdW1iAAAAJ2p1bWRjMmNsABEAEIAAAKoAOJtxA2MycGEuY2xhaW0udjIAAAACD2Nib3KlY2FsZ2ZzaGEyNTZpc2lnbmF0dXJleE1zZWxmI2p1bWJmPS9jMnBhL3VybjpjMnBhOjkwZWIzZjBkLWI4MzYtNDM2MC1hMWMyLTc2Y2U5Yjg3YjUyNy9jMnBhLnNpZ25hdHVyZWppbnN0YW5jZUlEeCx4bXA6aWlkOjgzMGU1MWU3LWZiZGUtNDYzMy05YzYxLTE0MWQ5N2ZhMmQxZHJjcmVhdGVkX2Fzc2VydGlvbnODomN1cmx4LXNlbGYjanVtYmY9YzJwYS5hc3NlcnRpb25zL2MycGEuaW5ncmVkaWVudC52M2RoYXNoWCAmcPe5I4lAllkvzHsSMoUoWBcUwI0CTKVsLqdXw4bfi6JjdXJseCpzZWxmI2p1bWJmPWMycGEuYXNzZXJ0aW9ucy9jMnBhLmFjdGlvbnMudjJkaGFzaFggbW/6mJnXbVBtXFOUBBU+7635D1dUWSZbU+DnqAOkCo6iY3VybHgpc2VsZiNqdW1iZj1jMnBhLmFzc2VydGlvbnMvYzJwYS5oYXNoLmRhdGFkaGFzaFggum/+kAVmoNOuNtC8jwVzPSRcVOW5lonIge/Va4mcK390Y2xhaW1fZ2VuZXJhdG9yX2luZm+jZG5hbWVvQW50aHJvcGljIEZpbGVzZ3ZlcnNpb25lMS4wLjBrc3BlY1ZlcnNpb25lMi40LjAAABA4anVtYgAAAChqdW1kYzJjcwARABCAAACqADibcQNjMnBhLnNpZ25hdHVyZQAAABAIY2JvctKEWQISogEmGCFZAgowggIGMIIBjaADAgECAhRA5aAK7sI50L64g/oGQgU9Z1UTADAKBggqhkjOPQQDAzBJMRcwFQYDVQQKEw5BbnRocm9waWMsIFBCQzEuMCwGA1UEAxMlQW50aHJvcGljIENvbnRlbnQgQ3JlZGVudGlhbHMgUm9vdCBDQTAeFw0yNjA4MDcxODQzNTZaFw0yODA4MDYxOTQzNTZaMEQxFzAVBgNVBAoTDkFudGhyb3BpYywgUEJDMSkwJwYDVQQDEyBBbnRocm9waWMgQ2xhdWRlIENvbnRlbnQgU2lnbmluZzBZMBMGByqGSM49AgEGCCqGSM49AwEHA0IABJh6CmvLUBgFFNU0vUKlOVtE6djd17L5SuwX0LemFisBM3dkd/3cyjxFA3Qo5S46fX0/ihY0VZ7mfb9KF703t5OjWDBWMA4GA1UdDwEB/wQEAwIHgDAVBgNVHSUEDjAMBgorBgEEAYPoXgIBMAwGA1UdEwEB/wQCMAAwHwYDVR0jBBgwFoAUzlHiBIFOZFsj+OPEz5o+nMHXXMIwCgYIKoZIzj0EAwMDZwAwZAIwMXMdFJ4BetLLVY7ORuE9noqbbAZOZn/aArXyTwFAZfKrPzxF2vPoJNf1+UCdg1XGAjBwX1zd9WGqYkqmL5SFqw1QySjr1zJfpJM9+1rdDwSPLMOPOjKuiXjoU/pUUeG9RwmhY3BhZFkNngAAAAAAAAAAAAAAAAAAAAAAAAAAAAAAAAAAAAAAAAAAAAAAAAAAAAAAAAAAAAAAAAAAAAAAAAAAAAAAAAAAAAAAAAAAAAAAAAAAAAAAAAAAAAAAAAAAAAAAAAAAAAAAAAAAAAAAAAAAAAAAAAAAAAAAAAAAAAAAAAAAAAAAAAAAAAAAAAAAAAAAAAAAAAAAAAAAAAAAAAAAAAAAAAAAAAAAAAAAAAAAAAAAAAAAAAAAAAAAAAAAAAAAAAAAAAAAAAAAAAAAAAAAAAAAAAAAAAAAAAAAAAAAAAAAAAAAAAAAAAAAAAAAAAAAAAAAAAAAAAAAAAAAAAAAAAAAAAAAAAAAAAAAAAAAAAAAAAAAAAAAAAAAAAAAAAAAAAAAAAAAAAAAAAAAAAAAAAAAAAAAAAAAAAAAAAAAAAAAAAAAAAAAAAAAAAAAAAAAAAAAAAAAAAAAAAAAAAAAAAAAAAAAAAAAAAAAAAAAAAAAAAAAAAAAAAAAAAAAAAAAAAAAAAAAAAAAAAAAAAAAAAAAAAAAAAAAAAAAAAAAAAAAAAAAAAAAAAAAAAAAAAAAAAAAAAAAAAAAAAAAAAAAAAAAAAAAAAAAAAAAAAAAAAAAAAAAAAAAAAAAAAAAAAAAAAAAAAAAAAAAAAAAAAAAAAAAAAAAAAAAAAAAAAAAAAAAAAAAAAAAAAAAAAAAAAAAAAAAAAAAAAAAAAAAAAAAAAAAAAAAAAAAAAAAAAAAAAAAAAAAAAAAAAAAAAAAAAAAAAAAAAAAAAAAAAAAAAAAAAAAAAAAAAAAAAAAAAAAAAAAAAAAAAAAAAAAAAAAAAAAAAAAAAAAAAAAAAAAAAAAAAAAAAAAAAAAAAAAAAAAAAAAAAAAAAAAAAAAAAAAAAAAAAAAAAAAAAAAAAAAAAAAAAAAAAAAAAAAAAAAAAAAAAAAAAAAAAAAAAAAAAAAAAAAAAAAAAAAAAAAAAAAAAAAAAAAAAAAAAAAAAAAAAAAAAAAAAAAAAAAAAAAAAAAAAAAAAAAAAAAAAAAAAAAAAAAAAAAAAAAAAAAAAAAAAAAAAAAAAAAAAAAAAAAAAAAAAAAAAAAAAAAAAAAAAAAAAAAAAAAAAAAAAAAAAAAAAAAAAAAAAAAAAAAAAAAAAAAAAAAAAAAAAAAAAAAAAAAAAAAAAAAAAAAAAAAAAAAAAAAAAAAAAAAAAAAAAAAAAAAAAAAAAAAAAAAAAAAAAAAAAAAAAAAAAAAAAAAAAAAAAAAAAAAAAAAAAAAAAAAAAAAAAAAAAAAAAAAAAAAAAAAAAAAAAAAAAAAAAAAAAAAAAAAAAAAAAAAAAAAAAAAAAAAAAAAAAAAAAAAAAAAAAAAAAAAAAAAAAAAAAAAAAAAAAAAAAAAAAAAAAAAAAAAAAAAAAAAAAAAAAAAAAAAAAAAAAAAAAAAAAAAAAAAAAAAAAAAAAAAAAAAAAAAAAAAAAAAAAAAAAAAAAAAAAAAAAAAAAAAAAAAAAAAAAAAAAAAAAAAAAAAAAAAAAAAAAAAAAAAAAAAAAAAAAAAAAAAAAAAAAAAAAAAAAAAAAAAAAAAAAAAAAAAAAAAAAAAAAAAAAAAAAAAAAAAAAAAAAAAAAAAAAAAAAAAAAAAAAAAAAAAAAAAAAAAAAAAAAAAAAAAAAAAAAAAAAAAAAAAAAAAAAAAAAAAAAAAAAAAAAAAAAAAAAAAAAAAAAAAAAAAAAAAAAAAAAAAAAAAAAAAAAAAAAAAAAAAAAAAAAAAAAAAAAAAAAAAAAAAAAAAAAAAAAAAAAAAAAAAAAAAAAAAAAAAAAAAAAAAAAAAAAAAAAAAAAAAAAAAAAAAAAAAAAAAAAAAAAAAAAAAAAAAAAAAAAAAAAAAAAAAAAAAAAAAAAAAAAAAAAAAAAAAAAAAAAAAAAAAAAAAAAAAAAAAAAAAAAAAAAAAAAAAAAAAAAAAAAAAAAAAAAAAAAAAAAAAAAAAAAAAAAAAAAAAAAAAAAAAAAAAAAAAAAAAAAAAAAAAAAAAAAAAAAAAAAAAAAAAAAAAAAAAAAAAAAAAAAAAAAAAAAAAAAAAAAAAAAAAAAAAAAAAAAAAAAAAAAAAAAAAAAAAAAAAAAAAAAAAAAAAAAAAAAAAAAAAAAAAAAAAAAAAAAAAAAAAAAAAAAAAAAAAAAAAAAAAAAAAAAAAAAAAAAAAAAAAAAAAAAAAAAAAAAAAAAAAAAAAAAAAAAAAAAAAAAAAAAAAAAAAAAAAAAAAAAAAAAAAAAAAAAAAAAAAAAAAAAAAAAAAAAAAAAAAAAAAAAAAAAAAAAAAAAAAAAAAAAAAAAAAAAAAAAAAAAAAAAAAAAAAAAAAAAAAAAAAAAAAAAAAAAAAAAAAAAAAAAAAAAAAAAAAAAAAAAAAAAAAAAAAAAAAAAAAAAAAAAAAAAAAAAAAAAAAAAAAAAAAAAAAAAAAAAAAAAAAAAAAAAAAAAAAAAAAAAAAAAAAAAAAAAAAAAAAAAAAAAAAAAAAAAAAAAAAAAAAAAAAAAAAAAAAAAAAAAAAAAAAAAAAAAAAAAAAAAAAAAAAAAAAAAAAAAAAAAAAAAAAAAAAAAAAAAAAAAAAAAAAAAAAAAAAAAAAAAAAAAAAAAAAAAAAAAAAAAAAAAAAAAAAAAAAAAAAAAAAAAAAAAAAAAAAAAAAAAAAAAAAAAAAAAAAAAAAAAAAAAAAAAAAAAAAAAAAAAAAAAAAAAAAAAAAAAAAAAAAAAAAAAAAAAAAAAAAAAAAAAAAAAAAAAAAAAAAAAAAAAAAAAAAAAAAAAAAAAAAAAAAAAAAAAAAAAAAAAAAAAAAAAAAAAAAAAAAAAAAAAAAAAAAAAAAAAAAAAAAAAAAAAAAAAAAAAAAAAAAAAAAAAAAAAAAAAAAAAAAAAAAAAAAAAAAAAAAAAAAAAAAAAAAAAAAAAAAAAAAAAAAAAAAAAAAAAAAAAAAAAAAAAAAAAAAAAAAAAAAAAAAAAAAAAAAAAAAAAAAAAAAAAAAAAAAAAAAAAAAAAAAAAAAAAAAAAAAAAAAAAAAAAAAAAAAAAAAAAAAAAAAAAAAAAAAAAAAAAAAAAAAAAAAAAAAAAAAAAAAAAAAAAAAAAAAAAAAAAAAAAAAAAAAAAAAAAAAAAAAAAAAAAAAAAAAAAAAAAAAAAAAAAAAAAAAAAAAAAAAAAAAAAAAAAAAAAAAAAAAAAAAAAAAAAAAAAAAAAAAAAAAAAAAAAAAAAAAAAAAAAAAAAAAAAAAAAAAAAAAAAAAAAAAAAAAAAAAAAAAAAAAAAAAAAAAAAAAAAAAAAAAAAAAAAAAAAAAAAAAAAAAAAAAAAAAAAAAAAAAAAAAAAAAAAAAAAAAAAAAAAAAAAAAAAAAAAAAAAAAAAAAAAAAAAAAAAAAAAAAAAAAAAAAAAAAAAAAAAAAAAAAAAAAAAAAAAAAAAAAAAAAAAAAAAAAAAAAAAAAAAAAAAAAAAAAAAAAAAAAAAAAAAAAAAAAAAAAAAAAAAAAAAAAAAAAAAAAAAAAAAAAAAAAAAAAAAAAAAAAAAAAAAAAAAAAAAAAAAAAAAAAAAAAAAAAAAAAAAAAAAAAAAAAAAAAAAAAAAAAAAAAAAAAAAAAAAAAAAAAAAAAAAAAAAAAAAAAAAAAAAAAAAAAAAAAAAAAAAAAAAAAAAAAAAAAAAAAAAAAAAAAAAAAAAAAAAAAAAAAAAAAAAAAAAAAAAAAAAAAAAAAAAAAAAAAAAAAAAAAAAAAAAAAAAAAAAAAAAAAAAAAAAAAAAAAAAAAAAAAAAAAAAAAAAAAAAAAAAAAAAAAAAAAAAAAAAAAAAAAAAAAAAAAAAAAAAAAAAAAAAAAAAAAAAAAAAAAAAAAAAAAAAAAAAAAAAAAAAAAAAAAAAAAAAAAAAAAAAAAAAAAAAAAAAAAAAAAAAAAAAAAAAAAAAAAAAAAAAAAAAAAAAAAAAAAAAAAAAAAAAAAAAAAAAAAAAAAAAAAAAAAAAAAAAAAAAAAAAAAAAAAAAAAAAAAAAAAAAAAAAAAAAAAAAAAAAAAAAAAAAAAAAAAAAAAAAAAAAAAAAAAAAAAAAAAAAAAAAAAAAAAAAAAAAAAAAAAAAAAAAAAAAAAAAAAAAAAAAAAAAAAAAAAAAAAAAAAAAAAAAAAAAAAAAAAAAAAAAAAAAAAAAAAAAAAAAAAAAAAAAAAAAAAAAAAAAAAAAAAAAAAAAAAAAAAAAAAAAAAAAAAAAAAAAAAAAAAAAAAAAAAAAAAAAAAAAAAAAAAAAAAAAAAAAAAAAAAAAAAAAAAAAAAAAAAAAAAAAAAAAAAAAAAAAAAAAAAAAAAAAAAAAAAAAAAAAAAAAAAAAAAAAAAAAAAAAAAAAAAAAAAAAAAAAAAAAAAAAAAAAAAAAAAAAAAAAAAAAAAAAAAAAAAAAAAAAAAAAAAAAAAAAAAAAAAAAAAAAAAAAAAAAAAAAAAAAAAAAAAAAAAAAAAAAAAAAAAAAAAAAAAAAAAAAAAAAAAAAAAAAAAAAAAAAAAAAAAAAAAAAAAAAAAAAAAAAAAAAAAAAAAAAAAAAAAAAAAAAAAAAAAAAAAAAAAAAAAAAAAAAAAAAAAAAAAAAAAAAAAAAAAAAAAAAAAAAAAAAAAAAAAAAAAAAAAAAAAAAAAAAAAAAAAAAAAAAAAAAAAAAAAAAAAAPZYQE5oiKG158qQRz6yldcZqLF32kwF1+k10DyqC6nFwHoSpOP3GRW3KMAVQx6r+MbkdLrwArmHNzNxyaz02w0o+8s=</c2pa:manifest></metadata><rect x="-2" y="-2" width="29" height="29" fill="none"></rect><g fill="#7E1F35" shape-rendering="crispEdges"><rect x="8" y="0" width="1" height="1"></rect><rect x="11" y="0" width="1" height="1"></rect><rect x="12" y="0" width="1" height="1"></rect><rect x="15" y="0" width="1" height="1"></rect><rect x="16" y="0" width="1" height="1"></rect><rect x="10" y="1" width="1" height="1"></rect><rect x="11" y="1" width="1" height="1"></rect><rect x="13" y="1" width="1" height="1"></rect><rect x="15" y="1" width="1" height="1"></rect><rect x="16" y="1" width="1" height="1"></rect><rect x="8" y="2" width="1" height="1"></rect><rect x="10" y="2" width="1" height="1"></rect><rect x="12" y="2" width="1" height="1"></rect><rect x="13" y="2" width="1" height="1"></rect><rect x="15" y="2" width="1" height="1"></rect><rect x="16" y="2" width="1" height="1"></rect><rect x="11" y="3" width="1" height="1"></rect><rect x="8" y="4" width="1" height="1"></rect><rect x="11" y="4" width="1" height="1"></rect><rect x="16" y="4" width="1" height="1"></rect><rect x="8" y="5" width="1" height="1"></rect><rect x="9" y="5" width="1" height="1"></rect><rect x="10" y="5" width="1" height="1"></rect><rect x="11" y="5" width="1" height="1"></rect><rect x="13" y="5" width="1" height="1"></rect><rect x="8" y="6" width="1" height="1"></rect><rect x="12" y="6" width="1" height="1"></rect><rect x="14" y="6" width="1" height="1"></rect><rect x="16" y="6" width="1" height="1"></rect><rect x="8" y="7" width="1" height="1"></rect><rect x="9" y="7" width="1" height="1"></rect><rect x="11" y="7" width="1" height="1"></rect><rect x="12" y="7" width="1" height="1"></rect><rect x="13" y="7" width="1" height="1"></rect><rect x="15" y="7" width="1" height="1"></rect><rect x="16" y="7" width="1" height="1"></rect><rect x="0" y="8" width="1" height="1"></rect><rect x="1" y="8" width="1" height="1"></rect><rect x="4" y="8" width="1" height="1"></rect><rect x="5" y="8" width="1" height="1"></rect><rect x="9" y="8" width="1" height="1"></rect><rect x="11" y="8" width="1" height="1"></rect><rect x="14" y="8" width="1" height="1"></rect><rect x="15" y="8" width="1" height="1"></rect><rect x="17" y="8" width="1" height="1"></rect><rect x="18" y="8" width="1" height="1"></rect><rect x="20" y="8" width="1" height="1"></rect><rect x="21" y="8" width="1" height="1"></rect><rect x="22" y="8" width="1" height="1"></rect><rect x="24" y="8" width="1" height="1"></rect><rect x="7" y="9" width="1" height="1"></rect><rect x="8" y="9" width="1" height="1"></rect><rect x="13" y="9" width="1" height="1"></rect><rect x="14" y="9" width="1" height="1"></rect><rect x="15" y="9" width="1" height="1"></rect><rect x="18" y="9" width="1" height="1"></rect><rect x="19" y="9" width="1" height="1"></rect><rect x="20" y="9" width="1" height="1"></rect><rect x="22" y="9" width="1" height="1"></rect><rect x="24" y="9" width="1" height="1"></rect><rect x="0" y="10" width="1" height="1"></rect><rect x="5" y="10" width="1" height="1"></rect><rect x="6" y="10" width="1" height="1"></rect><rect x="7" y="10" width="1" height="1"></rect><rect x="8" y="10" width="1" height="1"></rect><rect x="10" y="10" width="1" height="1"></rect><rect x="11" y="10" width="1" height="1"></rect><rect x="12" y="10" width="1" height="1"></rect><rect x="13" y="10" width="1" height="1"></rect><rect x="17" y="10" width="1" height="1"></rect><rect x="21" y="10" width="1" height="1"></rect><rect x="23" y="10" width="1" height="1"></rect><rect x="24" y="10" width="1" height="1"></rect><rect x="0" y="11" width="1" height="1"></rect><rect x="1" y="11" width="1" height="1"></rect><rect x="4" y="11" width="1" height="1"></rect><rect x="5" y="11" width="1" height="1"></rect><rect x="6" y="11" width="1" height="1"></rect><rect x="9" y="11" width="1" height="1"></rect><rect x="13" y="11" width="1" height="1"></rect><rect x="17" y="11" width="1" height="1"></rect><rect x="18" y="11" width="1" height="1"></rect><rect x="20" y="11" width="1" height="1"></rect><rect x="21" y="11" width="1" height="1"></rect><rect x="22" y="11" width="1" height="1"></rect><rect x="0" y="12" width="1" height="1"></rect><rect x="3" y="12" width="1" height="1"></rect><rect x="4" y="12" width="1" height="1"></rect><rect x="7" y="12" width="1" height="1"></rect><rect x="8" y="12" width="1" height="1"></rect><rect x="9" y="12" width="1" height="1"></rect><rect x="10" y="12" width="1" height="1"></rect><rect x="12" y="12" width="1" height="1"></rect><rect x="13" y="12" width="1" height="1"></rect><rect x="14" y="12" width="1" height="1"></rect><rect x="15" y="12" width="1" height="1"></rect><rect x="17" y="12" width="1" height="1"></rect><rect x="19" y="12" width="1" height="1"></rect><rect x="20" y="12" width="1" height="1"></rect><rect x="22" y="12" width="1" height="1"></rect><rect x="23" y="12" width="1" height="1"></rect><rect x="24" y="12" width="1" height="1"></rect><rect x="1" y="13" width="1" height="1"></rect><rect x="4" y="13" width="1" height="1"></rect><rect x="6" y="13" width="1" height="1"></rect><rect x="8" y="13" width="1" height="1"></rect><rect x="10" y="13" width="1" height="1"></rect><rect x="11" y="13" width="1" height="1"></rect><rect x="12" y="13" width="1" height="1"></rect><rect x="13" y="13" width="1" height="1"></rect><rect x="15" y="13" width="1" height="1"></rect><rect x="18" y="13" width="1" height="1"></rect><rect x="20" y="13" width="1" height="1"></rect><rect x="21" y="13" width="1" height="1"></rect><rect x="22" y="13" width="1" height="1"></rect><rect x="23" y="13" width="1" height="1"></rect><rect x="24" y="13" width="1" height="1"></rect><rect x="0" y="14" width="1" height="1"></rect><rect x="8" y="14" width="1" height="1"></rect><rect x="9" y="14" width="1" height="1"></rect><rect x="12" y="14" width="1" height="1"></rect><rect x="13" y="14" width="1" height="1"></rect><rect x="14" y="14" width="1" height="1"></rect><rect x="15" y="14" width="1" height="1"></rect><rect x="16" y="14" width="1" height="1"></rect><rect x="17" y="14" width="1" height="1"></rect><rect x="18" y="14" width="1" height="1"></rect><rect x="19" y="14" width="1" height="1"></rect><rect x="3" y="15" width="1" height="1"></rect><rect x="5" y="15" width="1" height="1"></rect><rect x="7" y="15" width="1" height="1"></rect><rect x="8" y="15" width="1" height="1"></rect><rect x="10" y="15" width="1" height="1"></rect><rect x="13" y="15" width="1" height="1"></rect><rect x="14" y="15" width="1" height="1"></rect><rect x="15" y="15" width="1" height="1"></rect><rect x="21" y="15" width="1" height="1"></rect><rect x="2" y="16" width="1" height="1"></rect><rect x="3" y="16" width="1" height="1"></rect><rect x="4" y="16" width="1" height="1"></rect><rect x="6" y="16" width="1" height="1"></rect><rect x="7" y="16" width="1" height="1"></rect><rect x="8" y="16" width="1" height="1"></rect><rect x="9" y="16" width="1" height="1"></rect><rect x="10" y="16" width="1" height="1"></rect><rect x="11" y="16" width="1" height="1"></rect><rect x="16" y="16" width="1" height="1"></rect><rect x="17" y="16" width="1" height="1"></rect><rect x="19" y="16" width="1" height="1"></rect><rect x="22" y="16" width="1" height="1"></rect><rect x="8" y="17" width="1" height="1"></rect><rect x="9" y="17" width="1" height="1"></rect><rect x="11" y="17" width="1" height="1"></rect><rect x="12" y="17" width="1" height="1"></rect><rect x="15" y="17" width="1" height="1"></rect><rect x="17" y="17" width="1" height="1"></rect><rect x="19" y="17" width="1" height="1"></rect><rect x="20" y="17" width="1" height="1"></rect><rect x="21" y="17" width="1" height="1"></rect><rect x="23" y="17" width="1" height="1"></rect><rect x="24" y="17" width="1" height="1"></rect><rect x="8" y="18" width="1" height="1"></rect><rect x="10" y="18" width="1" height="1"></rect><rect x="12" y="18" width="1" height="1"></rect><rect x="14" y="18" width="1" height="1"></rect><rect x="16" y="18" width="1" height="1"></rect><rect x="18" y="18" width="1" height="1"></rect><rect x="19" y="18" width="1" height="1"></rect><rect x="22" y="18" width="1" height="1"></rect><rect x="24" y="18" width="1" height="1"></rect><rect x="8" y="19" width="1" height="1"></rect><rect x="9" y="19" width="1" height="1"></rect><rect x="10" y="19" width="1" height="1"></rect><rect x="12" y="19" width="1" height="1"></rect><rect x="13" y="19" width="1" height="1"></rect><rect x="14" y="19" width="1" height="1"></rect><rect x="18" y="19" width="1" height="1"></rect><rect x="22" y="19" width="1" height="1"></rect><rect x="24" y="19" width="1" height="1"></rect><rect x="9" y="20" width="1" height="1"></rect><rect x="11" y="20" width="1" height="1"></rect><rect x="15" y="20" width="1" height="1"></rect><rect x="17" y="20" width="1" height="1"></rect><rect x="19" y="20" width="1" height="1"></rect><rect x="21" y="20" width="1" height="1"></rect><rect x="23" y="20" width="1" height="1"></rect><rect x="24" y="20" width="1" height="1"></rect><rect x="10" y="21" width="1" height="1"></rect><rect x="11" y="21" width="1" height="1"></rect><rect x="12" y="21" width="1" height="1"></rect><rect x="13" y="21" width="1" height="1"></rect><rect x="14" y="21" width="1" height="1"></rect><rect x="16" y="21" width="1" height="1"></rect><rect x="18" y="21" width="1" height="1"></rect><rect x="19" y="21" width="1" height="1"></rect><rect x="24" y="21" width="1" height="1"></rect><rect x="9" y="22" width="1" height="1"></rect><rect x="15" y="22" width="1" height="1"></rect><rect x="16" y="22" width="1" height="1"></rect><rect x="17" y="22" width="1" height="1"></rect><rect x="21" y="22" width="1" height="1"></rect><rect x="22" y="22" width="1" height="1"></rect><rect x="24" y="22" width="1" height="1"></rect><rect x="8" y="23" width="1" height="1"></rect><rect x="10" y="23" width="1" height="1"></rect><rect x="12" y="23" width="1" height="1"></rect><rect x="14" y="23" width="1" height="1"></rect><rect x="16" y="23" width="1" height="1"></rect><rect x="17" y="23" width="1" height="1"></rect><rect x="18" y="23" width="1" height="1"></rect><rect x="19" y="23" width="1" height="1"></rect><rect x="21" y="23" width="1" height="1"></rect><rect x="23" y="23" width="1" height="1"></rect><rect x="24" y="23" width="1" height="1"></rect><rect x="11" y="24" width="1" height="1"></rect><rect x="13" y="24" width="1" height="1"></rect><rect x="14" y="24" width="1" height="1"></rect><rect x="19" y="24" width="1" height="1"></rect><rect x="20" y="24" width="1" height="1"></rect><rect x="22" y="24" width="1" height="1"></rect><rect x="24" y="24" width="1" height="1"></rect><rect x="0" y="0" width="1" height="1"></rect><rect x="1" y="0" width="1" height="1"></rect><rect x="2" y="0" width="1" height="1"></rect><rect x="3" y="0" width="1" height="1"></rect><rect x="4" y="0" width="1" height="1"></rect><rect x="5" y="0" width="1" height="1"></rect><rect x="6" y="0" width="1" height="1"></rect><rect x="0" y="1" width="1" height="1"></rect><rect x="6" y="1" width="1" height="1"></rect><rect x="0" y="2" width="1" height="1"></rect><rect x="2" y="2" width="1" height="1"></rect><rect x="3" y="2" width="1" height="1"></rect><rect x="4" y="2" width="1" height="1"></rect><rect x="6" y="2" width="1" height="1"></rect><rect x="0" y="3" width="1" height="1"></rect><rect x="2" y="3" width="1" height="1"></rect><rect x="3" y="3" width="1" height="1"></rect><rect x="4" y="3" width="1" height="1"></rect><rect x="6" y="3" width="1" height="1"></rect><rect x="0" y="4" width="1" height="1"></rect><rect x="2" y="4" width="1" height="1"></rect><rect x="3" y="4" width="1" height="1"></rect><rect x="4" y="4" width="1" height="1"></rect><rect x="6" y="4" width="1" height="1"></rect><rect x="0" y="5" width="1" height="1"></rect><rect x="6" y="5" width="1" height="1"></rect><rect x="0" y="6" width="1" height="1"></rect><rect x="1" y="6" width="1" height="1"></rect><rect x="2" y="6" width="1" height="1"></rect><rect x="3" y="6" width="1" height="1"></rect><rect x="4" y="6" width="1" height="1"></rect><rect x="5" y="6" width="1" height="1"></rect><rect x="6" y="6" width="1" height="1"></rect><rect x="18" y="0" width="1" height="1"></rect><rect x="19" y="0" width="1" height="1"></rect><rect x="20" y="0" width="1" height="1"></rect><rect x="21" y="0" width="1" height="1"></rect><rect x="22" y="0" width="1" height="1"></rect><rect x="23" y="0" width="1" height="1"></rect><rect x="24" y="0" width="1" height="1"></rect><rect x="18" y="1" width="1" height="1"></rect><rect x="24" y="1" width="1" height="1"></rect><rect x="18" y="2" width="1" height="1"></rect><rect x="20" y="2" width="1" height="1"></rect><rect x="21" y="2" width="1" height="1"></rect><rect x="22" y="2" width="1" height="1"></rect><rect x="24" y="2" width="1" height="1"></rect><rect x="18" y="3" width="1" height="1"></rect><rect x="20" y="3" width="1" height="1"></rect><rect x="21" y="3" width="1" height="1"></rect><rect x="22" y="3" width="1" height="1"></rect><rect x="24" y="3" width="1" height="1"></rect><rect x="18" y="4" width="1" height="1"></rect><rect x="20" y="4" width="1" height="1"></rect><rect x="21" y="4" width="1" height="1"></rect><rect x="22" y="4" width="1" height="1"></rect><rect x="24" y="4" width="1" height="1"></rect><rect x="18" y="5" width="1" height="1"></rect><rect x="24" y="5" width="1" height="1"></rect><rect x="18" y="6" width="1" height="1"></rect><rect x="19" y="6" width="1" height="1"></rect><rect x="20" y="6" width="1" height="1"></rect><rect x="21" y="6" width="1" height="1"></rect><rect x="22" y="6" width="1" height="1"></rect><rect x="23" y="6" width="1" height="1"></rect><rect x="24" y="6" width="1" height="1"></rect><rect x="0" y="18" width="1" height="1"></rect><rect x="1" y="18" width="1" height="1"></rect><rect x="2" y="18" width="1" height="1"></rect><rect x="3" y="18" width="1" height="1"></rect><rect x="4" y="18" width="1" height="1"></rect><rect x="5" y="18" width="1" height="1"></rect><rect x="6" y="18" width="1" height="1"></rect><rect x="0" y="19" width="1" height="1"></rect><rect x="6" y="19" width="1" height="1"></rect><rect x="0" y="20" width="1" height="1"></rect><rect x="2" y="20" width="1" height="1"></rect><rect x="3" y="20" width="1" height="1"></rect><rect x="4" y="20" width="1" height="1"></rect><rect x="6" y="20" width="1" height="1"></rect><rect x="0" y="21" width="1" height="1"></rect><rect x="2" y="21" width="1" height="1"></rect><rect x="3" y="21" width="1" height="1"></rect><rect x="4" y="21" width="1" height="1"></rect><rect x="6" y="21" width="1" height="1"></rect><rect x="0" y="22" width="1" height="1"></rect><rect x="2" y="22" width="1" height="1"></rect><rect x="3" y="22" width="1" height="1"></rect><rect x="4" y="22" width="1" height="1"></rect><rect x="6" y="22" width="1" height="1"></rect><rect x="0" y="23" width="1" height="1"></rect><rect x="6" y="23" width="1" height="1"></rect><rect x="0" y="24" width="1" height="1"></rect><rect x="1" y="24" width="1" height="1"></rect><rect x="2" y="24" width="1" height="1"></rect><rect x="3" y="24" width="1" height="1"></rect><rect x="4" y="24" width="1" height="1"></rect><rect x="5" y="24" width="1" height="1"></rect><rect x="6" y="24" width="1" height="1"></rect></g></svg>